<!-- Generated by IcoMoon.io -->
<svg version="1.1" xmlns="http://www.w3.org/2000/svg" width="15" height="15" viewBox="0 0 15 15">
<title>info</title>
<path d="M6.563 4.453c0-0.387 0.316-0.703 0.703-0.703h0.469c0.387 0 0.703 0.316 0.703 0.703v0.469c0 0.387-0.316 0.703-0.703 0.703h-0.469c-0.387 0-0.703-0.316-0.703-0.703v-0.469z"></path>
<path d="M9.375 11.25h-3.75v-0.938h0.938v-2.813h-0.938v-0.938h2.813v3.75h0.938z"></path>
<path d="M7.5 0c-4.142 0-7.5 3.358-7.5 7.5s3.358 7.5 7.5 7.5 7.5-3.358 7.5-7.5-3.358-7.5-7.5-7.5zM7.5 13.594c-3.365 0-6.094-2.728-6.094-6.094s2.728-6.094 6.094-6.094 6.094 2.728 6.094 6.094-2.728 6.094-6.094 6.094z"></path>
</svg>
